<svg xmlns="http://www.w3.org/2000/svg" viewBox="0 0 736.47 672.81"><defs><style>.cls-1{fill:#fff;}.cls-2{fill:none;stroke:#000;stroke-linecap:round;stroke-miterlimit:10;stroke-width:5px;}</style></defs><g id="lower"><g id="bottom"><polygon class="cls-1" points="12.39 478.1 368.77 420.31 724.07 478.1 367.74 669.97 12.39 478.1"/><path d="M371.53,430.53l347.64,56.54L370.5,674.82,22.81,487.08l348.72-56.55m0-5.06-364,59,363,196,364-196-363-59Z" transform="translate(-2.76 -7.69)"/></g><g id="top"><polygon class="cls-1" points="12.39 401.1 368.77 343.31 724.07 401.1 367.74 592.97 12.39 401.1"/><path d="M371.53,353.53l347.64,56.54L370.5,597.82,22.81,410.08l348.72-56.55m0-5.06-364,59,363,196,364-196-363-59Z" transform="translate(-2.76 -7.69)"/></g></g><g id="pyramid"><polygon id="background" class="cls-1" points="732.1 319.81 368.24 515.31 4.37 319.31 368.24 3.31 732.1 319.81"/><rect id="centerline_right" data-name="centerline right" x="368.74" y="3.31" width="2.5" height="509.5"/><rect id="centerline_left" data-name="centerline left" x="366.24" y="5.35" width="2.5" height="509.5"/><polygon id="outline" class="cls-2" points="732.1 319.81 368.24 515.31 4.37 319.31 368.24 3.31 732.1 319.81"/></g></svg>